<?xml version="1.0" encoding="utf-8"?>
<svg viewBox="0 0 919 919" xmlns="http://www.w3.org/2000/svg">
  <g transform="matrix(0.1, 0, 0, -0.1, -2.220192, 920.812873)" fill="none" stroke="#FB8500" stroke-width="120px">
    <path d="M 4719 8300 C 5354 8257 5920 8065 6475 7705 C 6648 7593 6918 7374 7050 7240 C 7436 6845 7695 6446 7885 5950 C 7933 5823 8026 5512 8054 5380 C 8174 4818 8130 4178 7930 3580 C 7799 3186 7694 2958 7510 2669 C 7163 2124 6683 1682 6151 1416 C 5661 1171 5269 1060 4756 1020 C 4260 982 3677 1075 3214 1266 C 3067 1326 2731 1494 2635 1555 C 2174 1846 1727 2316 1432 2822 C 1132 3333 966 3910 924 4580 C 914 4742 947 5107 991 5325 C 1090 5810 1240 6196 1490 6605 C 1877 7240 2343 7665 2980 7964 C 3211 8073 3411 8142 3670 8204 C 3814 8239 4177 8290 4340 8299 C 4540 8311 4562 8311 4719 8300 Z"/>
    <path d="M4437 8022 c10 -8 68 -38 128 -68 61 -29 146 -81 189 -113 98 -74 234 -206 242 -235 5 -20 11 -21 172 -24 327 -6 664 -72 932 -184 148 -61 412 -202 550 -293 69 -45 143 -92 165 -105 22 -13 61 -41 88 -62 26 -22 47 -36 47 -33 0 62 -264 309 -540 505 -126 90 -366 229 -517 302 -188 89 -539 209 -726 248 -259 54 -777 98 -730 62z"/>
    <path d="M4058 7995 c-2 -2 -63 -16 -137 -30 -217 -43 -505 -128 -681 -202 -130 -55 -467 -221 -486 -240 -8 -8 -14 -27 -14 -42 0 -14 -9 -53 -21 -85 -28 -81 -23 -93 24 -60 125 85 439 203 672 253 120 26 303 52 402 58 249 14 685 -56 800 -128 18 -11 29 -9 80 13 32 14 66 28 77 32 38 13 -226 198 -458 319 -121 64 -250 120 -258 112z"/>
    <path d="M3695 7440 c-166 -22 -228 -33 -355 -67 -139 -36 -323 -103 -467 -169 l-82 -37 77 -45 c42 -24 102 -58 132 -75 102 -56 275 -165 298 -187 22 -21 23 -21 40 -2 54 60 272 227 428 327 128 83 126 81 243 144 101 55 133 68 206 87 29 7 29 8 -15 15 -71 13 -428 19 -505 9z"/>
    <path d="M5279 7364 c23 -27 59 -74 79 -105 35 -53 39 -57 92 -67 67 -12 322 -125 527 -234 241 -127 477 -289 566 -387 43 -48 42 -55 22 134 -8 77 -15 167 -15 200 l0 60 -83 44 c-45 24 -125 68 -177 97 -110 62 -328 152 -455 189 -110 32 -241 58 -415 84 -74 11 -146 24 -160 28 -22 6 -20 1 19 -43z"/>
    <path d="M4430 7286 c-74 -24 -158 -53 -187 -64 -86 -35 -290 -140 -375 -193 -108 -68 -305 -210 -352 -255 -34 -32 -37 -38 -22 -46 10 -5 32 -22 49 -37 18 -15 54 -42 81 -61 125 -84 473 -377 600 -502 32 -33 74 -70 92 -84 l34 -26 97 47 c209 100 353 130 588 122 125 -4 169 -10 260 -35 182 -50 298 -102 389 -177 31 -25 58 -45 61 -45 8 0 -5 155 -21 250 -37 213 -146 475 -271 650 -37 52 -107 136 -156 187 -98 101 -164 141 -347 206 -52 19 -139 51 -193 71 -125 46 -158 45 -327 -8z"/>
    <path d="M2563 7034 c-29 -22 -33 -31 -33 -73 0 -26 -11 -108 -24 -182 -48 -262 -87 -631 -89 -844 -3 -179 4 -178 129 20 128 203 245 357 395 521 117 129 193 200 229 218 17 8 16 10 -8 31 -45 37 -157 107 -355 219 -103 59 -193 109 -200 111 -7 3 -27 -7 -44 -21z"/>
    <path d="M2292 6911 c-373 -216 -508 -322 -591 -466 -36 -62 -41 -77 -41 -134 0 -61 -2 -65 -40 -104 -22 -22 -39 -41 -38 -42 6 -6 138 -58 288 -115 181 -68 352 -146 363 -166 16 -28 22 -12 19 54 -7 147 63 838 98 971 5 19 8 36 7 37 -1 1 -30 -15 -65 -35z"/>
    <path d="M5620 6930 c0 -6 27 -60 60 -118 80 -145 121 -236 164 -367 60 -183 86 -339 86 -513 0 -76 1 -81 28 -98 54 -36 136 -120 178 -186 83 -127 135 -338 136 -557 0 -98 -6 -148 -41 -318 -40 -197 -48 -259 -33 -250 17 11 282 -15 396 -38 143 -28 356 -105 356 -128 0 -5 4 -6 10 -2 11 7 10 9 -48 145 -157 369 -259 873 -317 1569 -9 106 -14 207 -11 225 5 26 2 33 -22 47 -15 8 -86 61 -159 117 -195 149 -352 250 -578 372 -44 23 -108 58 -142 77 -35 19 -63 29 -63 23z"/>
    <path d="M6724 6804 c4 -38 11 -103 16 -144 5 -41 9 -116 10 -166 l0 -91 49 -32 c86 -55 223 -236 310 -408 108 -215 169 -661 142 -1043 -7 -96 -18 -204 -25 -240 -32 -158 -48 -224 -72 -292 -40 -117 -41 -109 21 -145 l55 -31 42 33 c81 62 220 247 308 410 71 132 133 290 184 472 25 88 51 172 57 186 10 22 8 34 -9 74 -11 27 -42 107 -67 178 -95 265 -234 515 -404 724 -112 139 -352 378 -461 459 -52 39 -110 83 -129 99 l-34 27 7 -70z"/>
    <path d="M3196 6488 c-146 -147 -248 -265 -353 -408 -83 -113 -242 -345 -249 -364 -6 -16 31 -42 221 -159 281 -172 800 -542 813 -578 5 -13 22 -11 22 4 0 6 14 45 30 85 147 361 256 548 413 710 50 50 97 92 104 92 7 0 13 2 13 4 0 26 -561 511 -715 619 -44 30 -96 72 -114 91 -19 20 -39 36 -45 36 -5 0 -68 -60 -140 -132z"/>
    <path d="M6775 6050 c2 -69 11 -177 19 -240 40 -300 76 -534 95 -616 11 -49 29 -132 40 -184 23 -105 112 -390 122 -390 6 0 15 113 26 345 6 146 -10 447 -33 603 -26 179 -66 281 -176 453 -30 46 -64 100 -76 119 l-21 35 4 -125z"/>
    <path d="M1520 5939 c0 -131 84 -489 160 -678 74 -186 221 -450 350 -631 22 -30 40 -61 40 -67 0 -7 3 -13 8 -13 4 0 7 21 8 48 0 26 38 225 83 442 49 234 86 438 91 500 4 58 11 112 14 121 8 18 3 20 -159 86 -60 25 -148 62 -195 83 -47 22 -146 62 -220 91 -74 28 -141 60 -149 70 -24 33 -31 21 -31 -52z"/>
    <path d="M4789 5980 c-168 -35 -279 -77 -279 -105 0 -6 17 -26 38 -44 20 -19 96 -88 167 -155 72 -67 184 -163 250 -213 170 -129 427 -345 451 -378 l21 -27 19 33 c64 111 152 326 197 484 54 190 56 173 -21 221 -288 179 -572 242 -843 184z"/>
    <path d="M4248 5680 c-141 -142 -224 -278 -373 -610 -26 -58 -56 -125 -68 -149 -16 -35 -18 -46 -7 -49 7 -3 45 -33 84 -67 39 -34 129 -105 200 -159 173 -132 324 -254 421 -341 78 -70 152 -125 167 -125 18 0 96 82 206 214 64 78 153 182 197 231 44 50 115 133 158 186 42 53 84 100 93 103 24 9 7 26 -106 106 -52 38 -126 95 -165 127 -38 32 -128 105 -200 162 -216 171 -255 205 -386 338 l-127 128 -94 -95z"/>
    <path d="M1350 5640 c-21 -176 -19 -503 4 -643 36 -223 128 -538 205 -702 43 -93 127 -226 200 -320 26 -33 63 -81 83 -107 l36 -47 11 42 c17 66 89 378 96 419 3 22 14 42 25 48 17 9 13 15 -38 67 -87 88 -320 472 -406 669 -86 195 -161 449 -193 649 -8 48 -9 45 -23 -75z"/>
    <path d="M5831 5572 c-81 -271 -108 -345 -163 -452 -32 -63 -69 -125 -81 -138 l-22 -23 206 -202 c113 -111 210 -211 216 -222 10 -18 11 -16 18 20 4 22 22 101 40 175 19 74 39 173 46 219 20 144 -3 370 -52 493 -25 63 -50 100 -120 176 l-56 60 -32 -106z"/>
    <path d="M2473 5534 c-6 -10 -25 -71 -42 -134 -30 -112 -41 -161 -116 -530 -84 -416 -88 -435 -110 -465 l-22 -30 22 -17 c12 -9 65 -70 117 -135 181 -224 380 -428 681 -696 l76 -68 37 118 c44 143 328 918 435 1189 12 30 11 34 -17 58 -16 14 -55 45 -88 68 -32 24 -120 88 -195 144 -176 130 -553 380 -656 435 -44 24 -87 52 -96 63 -16 20 -16 20 -26 0z"/>
    <path d="M7857 4850 c-4 -8 -18 -49 -33 -90 -61 -173 -171 -350 -348 -558 -39 -46 -84 -99 -100 -117 l-29 -34 41 -48 c22 -26 60 -68 85 -91 l45 -44 24 54 c14 29 46 86 72 127 70 109 192 350 223 439 21 63 27 101 31 207 5 133 1 184 -11 155z"/>
    <path d="M1191 4786 c-6 -25 -11 -72 -11 -106 0 -52 2 -60 18 -58 14 2 16 -3 13 -27 -2 -16 -3 -93 -4 -170 0 -158 20 -299 80 -550 l36 -152 71 -23 c137 -44 319 -137 392 -202 21 -19 21 -19 28 28 12 92 10 97 -60 170 -141 146 -259 312 -339 478 -83 171 -217 599 -201 642 3 8 2 14 -3 14 -5 0 -14 -20 -20 -44z"/>
    <path d="M5370 4703 c-41 -53 -145 -178 -231 -277 -85 -100 -167 -199 -182 -221 -29 -42 -37 -76 -14 -57 17 13 341 157 447 197 74 28 258 83 388 115 l43 11 -28 22 c-40 31 -284 250 -312 281 -14 14 -27 26 -30 25 -3 0 -40 -43 -81 -96z"/>
    <path d="M3658 4562 c-44 -129 -68 -197 -175 -487 -24 -66 -60 -165 -78 -220 -19 -55 -45 -131 -59 -168 -28 -79 -71 -236 -65 -241 17 -15 299 57 459 118 105 40 259 105 330 140 36 18 99 45 140 61 103 39 115 48 170 130 27 40 70 91 97 114 42 38 46 44 30 53 -10 5 -86 67 -168 136 -83 70 -203 167 -267 215 -215 162 -299 228 -328 258 -15 16 -30 29 -33 29 -3 -1 -27 -62 -53 -138z"/>
    <path d="M6200 4351 c0 -4 26 -35 58 -67 167 -170 340 -453 436 -714 19 -53 43 -114 52 -135 l16 -40 19 70 c43 160 146 616 154 680 l6 50 -108 34 c-216 67 -406 106 -543 112 -25 1 -55 6 -67 10 -13 5 -23 5 -23 0z"/>
    <path d="M5885 4293 c-183 -53 -482 -154 -600 -203 -161 -66 -365 -162 -365 -171 0 -3 27 -27 60 -54 66 -51 572 -552 588 -582 9 -15 16 -5 46 61 20 43 36 80 36 83 0 2 31 77 69 166 108 257 241 648 241 712 0 8 -20 4 -75 -12z"/>
    <path d="M6079 4098 c-71 -246 -129 -420 -179 -538 -94 -221 -131 -301 -163 -353 l-31 -50 24 -16 c13 -9 80 -66 149 -127 145 -127 300 -295 344 -373 27 -48 31 -52 38 -32 5 11 27 47 51 78 23 32 95 144 160 248 64 105 126 202 138 217 16 21 18 31 11 45 -6 10 -22 56 -36 103 -98 316 -153 439 -276 610 -76 106 -197 260 -205 260 -2 0 -13 -33 -25 -72z"/>
    <path d="M2086 3948 c-26 -117 -56 -251 -67 -298 -41 -184 -46 -211 -40 -214 50 -28 392 -120 504 -135 130 -18 372 -9 471 17 28 8 28 8 -38 54 -109 75 -293 238 -437 385 -151 156 -293 322 -317 371 -9 17 -19 32 -22 32 -4 0 -28 -96 -54 -212z"/>
    <path d="M7090 4108 c-1 -96 -103 -557 -164 -737 l-55 -163 32 6 c79 16 262 176 352 311 26 39 53 77 61 86 12 13 9 23 -16 75 -17 32 -58 133 -91 224 -54 148 -87 210 -111 210 -4 0 -8 -6 -8 -12z"/>
    <path d="M7708 3903 c-30 -54 -82 -141 -115 -193 -33 -52 -77 -128 -99 -168 -118 -222 -437 -504 -570 -504 -42 0 -45 -2 -41 -21 3 -12 13 -69 22 -127 9 -58 19 -123 23 -145 l7 -40 201 200 c379 377 488 531 577 813 33 103 65 268 54 279 -3 2 -29 -40 -59 -94z"/>
    <path d="M4664 3791 c-33 -20 -112 -59 -175 -85 -125 -54 -253 -133 -311 -193 -90 -93 -204 -299 -232 -415 -11 -47 20 -34 88 35 79 80 183 235 197 293 12 47 56 94 88 94 10 0 26 -15 35 -33 16 -29 17 -36 3 -68 -14 -35 -154 -246 -235 -354 -25 -33 -78 -92 -118 -131 l-74 -70 63 -65 c34 -35 109 -105 166 -154 172 -148 314 -308 475 -532 33 -46 61 -83 63 -83 21 0 163 114 264 212 l126 123 161 325 c88 179 177 351 197 384 40 67 39 64 21 68 -16 3 -189 163 -505 467 -117 113 -218 209 -225 212 -6 4 -38 -10 -72 -30z"/>
    <path d="M1414 3473 c45 -127 147 -343 231 -493 26 -47 60 -107 75 -133 l27 -48 -5 103 c-4 90 17 335 34 403 5 19 -8 27 -104 73 -60 29 -113 52 -119 52 -5 0 -39 18 -76 40 -36 22 -68 40 -71 40 -3 0 1 -17 8 -37z"/>
    <path d="M4004 3449 c-9 -14 -124 -66 -199 -89 -115 -36 -349 -91 -392 -93 -23 -1 -43 -4 -42 -7 0 -3 50 -41 111 -85 61 -44 146 -108 189 -142 l78 -63 64 113 c173 300 215 377 207 377 -5 0 -12 -5 -16 -11z"/>
    <path d="M1940 3181 c0 -132 -2 -128 157 -284 239 -234 338 -297 643 -402 52 -18 102 -36 110 -39 12 -5 16 4 18 41 5 83 32 247 72 445 22 105 38 193 37 195 -2 1 -35 -4 -73 -12 -173 -35 -312 -36 -509 -4 -91 15 -280 70 -374 108 -41 17 -75 31 -77 31 -2 0 -4 -35 -4 -79z"/>
    <path d="M3132 3025 c-36 -185 -67 -384 -78 -492 l-6 -72 38 11 c57 15 254 111 320 154 55 36 234 199 234 213 0 3 -13 12 -29 19 -72 32 -266 175 -387 285 -28 26 -54 47 -56 47 -3 0 -19 -74 -36 -165z"/>
    <path d="M5552 2893 c-33 -65 -67 -131 -76 -148 -9 -16 -58 -118 -111 -225 -79 -164 -106 -209 -169 -284 -42 -50 -74 -91 -73 -92 11 -11 224 65 452 161 99 42 250 106 335 142 85 36 157 67 159 69 7 6 -120 144 -265 289 -77 77 -149 155 -159 173 -11 17 -22 32 -26 32 -4 0 -34 -53 -67 -117z"/>
    <path d="M6674 2957 c-30 -68 -107 -195 -179 -295 -37 -52 -65 -95 -63 -97 4 -5 270 30 310 40 22 6 27 12 23 29 -16 68 -55 302 -55 326 0 45 -15 44 -36 -3z"/>
    <path d="M1891 2774 l-1 -141 32 -7 c17 -3 89 -31 159 -61 70 -30 131 -55 136 -55 4 0 -49 57 -118 128 -144 146 -183 194 -197 242 -8 28 -10 5 -11 -106z"/>
    <path d="M7190 2704 c-90 -75 -180 -140 -213 -155 -19 -9 -27 -18 -24 -30 3 -9 2 -47 -2 -83 l-7 -66 54 52 c100 98 274 320 261 332 -2 2 -33 -21 -69 -50z"/>
    <path d="M3760 2719 c0 -17 -176 -194 -245 -246 -110 -83 -345 -183 -430 -183 l-34 0 -3 -121 c-3 -118 -2 -122 20 -137 50 -33 342 -108 567 -147 261 -44 553 -22 811 62 l82 26 -30 25 c-17 14 -81 89 -143 166 -62 78 -157 184 -211 236 -120 115 -384 335 -384 319z"/>
    <path d="M6733 2409 c-39 -18 -233 -38 -368 -39 -37 0 -42 -3 -53 -33 -20 -56 -304 -475 -392 -579 -79 -93 -178 -176 -304 -257 -57 -36 -51 -39 25 -12 250 88 604 277 819 437 106 79 305 256 320 284 12 22 14 220 3 219 -5 0 -27 -9 -50 -20z"/>
    <path d="M2100 2383 c0 -19 275 -280 415 -394 44 -36 140 -107 213 -159 73 -51 135 -96 138 -101 17 -28 24 2 24 100 l0 110 -75 41 c-42 23 -101 61 -133 86 -218 167 -265 197 -335 216 -39 11 -111 39 -159 63 -48 24 -88 41 -88 38z"/>
    <path d="M6065 2320 c-9 -15 -268 -144 -395 -197 -288 -121 -480 -173 -637 -173 -82 0 -93 -2 -136 -30 -26 -16 -47 -34 -47 -39 0 -14 88 -89 160 -136 175 -114 379 -135 554 -56 91 40 190 145 357 376 67 93 169 250 169 259 0 10 -19 7 -25 -4z"/>
    <path d="M2680 2285 c14 -15 57 -52 95 -83 39 -30 76 -62 83 -70 10 -13 12 -7 12 35 0 28 3 64 6 82 l6 31 -48 -1 c-43 -1 -79 5 -159 28 -18 5 -17 3 5 -22z"/>
    <path d="M3058 1737 c2 -60 9 -107 16 -115 13 -14 301 -124 446 -170 122 -39 322 -84 525 -119 151 -26 178 -27 480 -28 286 0 335 2 461 23 78 12 168 29 200 37 72 19 174 67 199 95 18 20 18 20 -16 13 -66 -15 -191 -8 -259 15 -132 44 -448 244 -473 299 -7 16 -16 22 -26 18 -69 -28 -205 -68 -301 -89 -232 -51 -409 -56 -675 -21 -121 15 -508 107 -555 131 l-26 12 4 -101z"/>
  </g>
</svg>